<?xml version="1.0" standalone="no"?><!DOCTYPE svg PUBLIC "-//W3C//DTD SVG 1.1//EN" "http://www.w3.org/Graphics/SVG/1.1/DTD/svg11.dtd"><svg t="1627466301576" class="icon" viewBox="0 0 1024 1024" version="1.1" xmlns="http://www.w3.org/2000/svg" p-id="5365" xmlns:xlink="http://www.w3.org/1999/xlink" width="200" height="200"><defs><style type="text/css">@font-face { font-family: feedback-iconfont; src: url("//at.alicdn.com/t/font_1031158_1uhr8ri0pk5.eot?#iefix") format("embedded-opentype"), url("//at.alicdn.com/t/font_1031158_1uhr8ri0pk5.woff2") format("woff2"), url("//at.alicdn.com/t/font_1031158_1uhr8ri0pk5.woff") format("woff"), url("//at.alicdn.com/t/font_1031158_1uhr8ri0pk5.ttf") format("truetype"), url("//at.alicdn.com/t/font_1031158_1uhr8ri0pk5.svg#iconfont") format("svg"); }
</style></defs><path d="M744.727273 380.974545a176.872727 176.872727 0 0 1 87.738182 3.49091h1.861818a323.723636 323.723636 0 0 0-645.352728 0h1.396364a178.501818 178.501818 0 0 1 88.901818-3.258182 30.254545 30.254545 0 0 1 23.272728 29.556363l-1.861819 294.632728a30.254545 30.254545 0 0 1-23.272727 29.323636 174.545455 174.545455 0 0 1-36.770909 3.723636h-5.585455a325.818182 325.818182 0 0 0 209.454546 150.341819 98.676364 98.676364 0 0 1-9.774546-81.687273 96.116364 96.116364 0 0 1 20.247273-35.607273 210.618182 210.618182 0 0 1-150.807273-202.472727v-154.298182a208.058182 208.058182 0 1 1 415.883637 0v153.832727a59.345455 59.345455 0 0 0 3.025454 18.152728v-176.174546a29.789091 29.789091 0 0 1 21.643637-29.556364z" fill="#69b2f7" p-id="5366"></path><path d="M957.44 522.24a178.501818 178.501818 0 0 0-123.112727-137.076364c0 9.774545 1.629091 19.549091 1.629091 29.556364v153.832727a58.181818 58.181818 0 0 1-113.338182 18.152728v114.734545a29.789091 29.789091 0 0 0 23.272727 29.090909 170.123636 170.123636 0 0 0 36.305455 3.490909 178.501818 178.501818 0 0 0 175.243636-211.781818z" fill="#a8d1ff" p-id="5367"></path><path d="M777.774545 626.734545a58.181818 58.181818 0 0 0 58.181819-58.181818v-153.832727c0-10.007273 0-19.781818-1.629091-29.556364h-1.861818a176.872727 176.872727 0 0 0-87.738182-4.189091 29.789091 29.789091 0 0 0-23.272728 29.556364v176.174546a57.949091 57.949091 0 0 0 56.32 40.02909z" fill="#58a8fa" p-id="5368"></path><path d="M187.345455 414.72c0-10.007273 0-19.781818 1.62909-29.556364a180.363636 180.363636 0 0 0 46.545455 352.814546 326.981818 326.981818 0 0 1-46.545455-169.425455z" fill="#a8d1ff" p-id="5369"></path><path d="M277.178182 734.72a30.254545 30.254545 0 0 0 23.272727-29.323636L302.545455 410.763636a30.254545 30.254545 0 0 0-23.272728-29.556363 178.501818 178.501818 0 0 0-88.901818 3.258182h-1.396364c0 9.774545-1.629091 19.549091-1.62909 29.556363v153.832727a326.981818 326.981818 0 0 0 46.545454 169.425455h5.585455a174.545455 174.545455 0 0 0 37.701818-2.56z" fill="#58a8fa" p-id="5370"></path><path d="M569.716364 837.818182a57.949091 57.949091 0 0 1-58.181819 58.181818 309.294545 309.294545 0 0 1-67.490909-7.447273 99.141818 99.141818 0 1 0 10.472728-116.363636 201.076364 201.076364 0 0 0 57.018181 8.378182 57.949091 57.949091 0 0 1 58.181819 57.250909z" fill="#a8d1ff" p-id="5371"></path><path d="M434.269091 806.632727a98.676364 98.676364 0 0 0 9.774545 81.687273 309.294545 309.294545 0 0 0 67.490909 7.447273 58.181818 58.181818 0 0 0 0-116.363637 201.076364 201.076364 0 0 1-57.018181-8.378181 96.116364 96.116364 0 0 0-20.247273 35.607272z" fill="#58a8fa" p-id="5372"></path></svg>