<?xml version="1.0" standalone="no"?><!DOCTYPE svg PUBLIC "-//W3C//DTD SVG 1.1//EN" "http://www.w3.org/Graphics/SVG/1.1/DTD/svg11.dtd"><svg t="1627466390632" class="icon" viewBox="0 0 1024 1024" version="1.1" xmlns="http://www.w3.org/2000/svg" p-id="6866" xmlns:xlink="http://www.w3.org/1999/xlink" width="200" height="200"><defs><style type="text/css">@font-face { font-family: feedback-iconfont; src: url("//at.alicdn.com/t/font_1031158_1uhr8ri0pk5.eot?#iefix") format("embedded-opentype"), url("//at.alicdn.com/t/font_1031158_1uhr8ri0pk5.woff2") format("woff2"), url("//at.alicdn.com/t/font_1031158_1uhr8ri0pk5.woff") format("woff"), url("//at.alicdn.com/t/font_1031158_1uhr8ri0pk5.ttf") format("truetype"), url("//at.alicdn.com/t/font_1031158_1uhr8ri0pk5.svg#iconfont") format("svg"); }
</style></defs><path d="M800 512c-17.92 0-32 14.08-32 32v320c0 17.92-14.08 32-32 32h-96V672c0-17.92-14.08-32-32-32H352c-17.92 0-32 14.08-32 32v224h-96c-17.92 0-32-14.08-32-32V544c0-17.92-14.08-32-32-32s-32 14.08-32 32v320c0 53.12 42.88 96 96 96h512c53.12 0 96-42.88 96-96V544c0-17.92-14.08-32-32-32zM576 896H384V704h192v192z m317.44-588.16l-64-160C824.96 135.68 812.8 128 800 128H160c-12.8 0-24.96 7.68-29.44 19.84l-64 160C64.64 311.68 64 316.16 64 320c0 70.4 57.6 128 128 128 38.4 0 72.32-16.64 96-43.52 23.68 26.88 57.6 43.52 96 43.52s72.32-16.64 96-43.52c23.68 26.88 57.6 43.52 96 43.52s72.32-16.64 96-43.52c23.68 26.88 57.6 43.52 96 43.52 70.4 0 128-57.6 128-128 0-3.84-0.64-8.32-2.56-12.16zM768 384c-35.2 0-64-28.8-64-64 0-17.92-14.08-32-32-32s-32 14.08-32 32c0 35.2-28.8 64-64 64s-64-28.8-64-64c0-17.92-14.08-32-32-32s-32 14.08-32 32c0 35.2-28.8 64-64 64s-64-28.8-64-64c0-17.92-14.08-32-32-32s-32 14.08-32 32c0 35.2-28.8 64-64 64-33.28 0-60.8-25.6-64-58.24L181.76 192h596.48L832 325.76C828.8 358.4 801.28 384 768 384z" p-id="6867"></path></svg>