<?xml version="1.0" standalone="no"?><!DOCTYPE svg PUBLIC "-//W3C//DTD SVG 1.1//EN" "http://www.w3.org/Graphics/SVG/1.1/DTD/svg11.dtd"><svg t="1627868355512" class="icon" viewBox="0 0 1024 1024" version="1.1" xmlns="http://www.w3.org/2000/svg" p-id="16228" xmlns:xlink="http://www.w3.org/1999/xlink" width="200" height="200"><defs><style type="text/css"></style></defs><path d="M512 213.26506667m-78.09706667 0a78.09706667 78.09706667 0 1 0 156.19413334 0 78.09706667 78.09706667 0 1 0-156.19413334 0Z" fill="#ffd842" p-id="16229"></path><path d="M798.17386667 953.27573333H225.82613333c-34.4064 0-64.44373333-23.48373333-72.63573333-57.344L37.41013333 416.9728c-6.5536-27.8528 2.73066667-56.25173333 24.576-74.82026667 21.84533333-18.56853333 51.33653333-22.39146667 77.55093334-11.4688l150.18666666 65.536 97.21173334-116.3264c-9.28426667-16.384-14.7456-34.95253333-16.93013334-54.0672-4.36906667-41.50613333 9.8304-82.46613333 38.22933334-112.50346666 26.76053333-27.8528 63.35146667-43.69066667 102.67306666-43.69066667 39.3216 0 75.91253333 15.83786667 102.67306667 44.78293333 28.39893333 30.03733333 42.05226667 70.99733333 37.13706667 112.50346667-2.18453333 18.56853333-7.64586667 36.59093333-16.93013334 52.97493333l97.21173334 116.3264 152.91733333-66.08213333c26.2144-11.4688 55.7056-7.09973333 77.55093333 11.4688 21.84533333 18.56853333 31.1296 46.96746667 24.576 74.27413333l-115.78026666 479.50506667c-7.64586667 34.4064-37.6832 57.89013333-72.0896 57.89013333zM110.592 398.40426667l-1.6384 1.6384 115.78026667 479.50506666 573.98613333 1.09226667 116.87253333-480.59733333-16.384-34.95253334 14.7456 33.86026667L735.91466667 475.9552c-14.7456 6.5536-32.22186667 2.18453333-42.5984-10.37653333l-132.7104-158.9248c-11.4688-14.19946667-11.4688-34.4064 1.09226666-48.05973334 9.8304-10.92266667 15.83786667-24.02986667 17.47626667-38.22933333 2.18453333-20.20693333-4.36906667-39.86773333-17.47626667-54.0672-13.1072-13.65333333-30.58346667-21.2992-49.152-21.84533333-19.11466667 0-36.0448 7.09973333-49.69813333 21.2992-13.65333333 14.19946667-20.20693333 33.86026667-18.0224 54.0672 1.6384 14.7456 7.09973333 27.8528 17.47626667 38.77546666 12.01493333 13.65333333 12.56106667 33.86026667 1.09226666 48.05973334l-134.3488 158.37866666c-10.37653333 12.56106667-27.8528 16.93013333-42.5984 10.37653334 0-0.54613333-175.85493333-77.0048-175.85493333-77.0048z" fill="#323233" p-id="16230"></path><path d="M349.7984 823.296H287.5392l-64.44373333-256.68266667h62.2592c16.384 0 33.31413333 16.384 38.77546666 36.59093334l45.8752 183.5008c4.9152 20.20693333-3.82293333 36.59093333-20.20693333 36.59093333z" fill="#ffd842" p-id="16231"></path></svg>