<?xml version="1.0" standalone="no"?><!DOCTYPE svg PUBLIC "-//W3C//DTD SVG 1.1//EN" "http://www.w3.org/Graphics/SVG/1.1/DTD/svg11.dtd"><svg t="1627782613993" class="icon" viewBox="0 0 1024 1024" version="1.1" xmlns="http://www.w3.org/2000/svg" p-id="3714" xmlns:xlink="http://www.w3.org/1999/xlink" width="200" height="200"><defs><style type="text/css"></style></defs><path d="M0 0h1024v1024H0z" fill="#FFFFFF" p-id="3715"></path><path d="M0 512A512 512 0 1 0 512 0 512 512 0 0 0 0 512z" fill="#F0F0F0" p-id="3716"></path><path d="M512 1024a511.612541 511.612541 0 0 0 439.046919-248.527568v-0.719567c-25.862919-39.299459-203.264-98.816-272.854487-98.816-138.115459 241.401081-324.483459 41.513514-321.14854 2.255567-96.422054-6.656-212.646054 63.017514-277.158054 108.294919A511.474162 511.474162 0 0 0 512 1024z" fill="#CACACA" p-id="3717"></path><path d="M359.244108 689.068973c21.337946 55.171459 190.851459 210.736432 318.934487-13.145946l3.155027 0.083027c-24.064-22.832432-42.620541-60.803459-35.494054-129.702054-64.304432 100.601081-186.810811 106.551351-249.648433 2.56 4.566486 30.443243 2.310919 78.169946-36.947027 140.204973z" fill="#F4F3F3" p-id="3718"></path><path d="M392.842378 554.122378c5.715027 20.175568 152.700541 157.446919 285.903568 123.77946-38.995027-48.003459-25.171027-122.921514-22.735568-167.548541 13.837838-30.332541-259.113514 16.812973-263.168 43.782919z" fill="#E3DCDB" p-id="3719"></path><path d="M649.672649 282.914595c-145.103568 32.601946-204.966054-33.708973-234.662054-53.884541-47.366919 37.888-35.535568 125.481514-50.771027 141.478054a101.389838 101.389838 0 0 1-7.209514-10.323027c-13.228973 361.305946 333.740973 336.854486 330.544432 19.151568-31.315027-48.003459-25.724541-49.110486-37.888-96.422054z" fill="#F8F8F8" p-id="3720"></path><path d="M415.107459 229.071568c29.654486 20.175568 89.516973 86.444973 234.662055 53.88454 12.371027 48.252541 6.185514 48.252541 39.769945 99.369514 24.576 8.399568 95.744-233.305946-112.64-266.11546C332.938378 78.322162 301.609514 293.016216 364.294919 370.508108c15.221622-15.996541 3.417946-103.548541 50.771027-141.43654z" fill="#BCBCBC" p-id="3721"></path></svg>