<?xml version="1.0" standalone="no"?><!DOCTYPE svg PUBLIC "-//W3C//DTD SVG 1.1//EN" "http://www.w3.org/Graphics/SVG/1.1/DTD/svg11.dtd"><svg t="1627868942498" class="icon" viewBox="0 0 1024 1024" version="1.1" xmlns="http://www.w3.org/2000/svg" p-id="18845" xmlns:xlink="http://www.w3.org/1999/xlink" width="200" height="200"><defs><style type="text/css"></style></defs><path d="M410.112 327.68m-108.032 0a108.032 108.032 0 1 0 216.064 0 108.032 108.032 0 1 0-216.064 0Z" fill="#D2EDFF" p-id="18846"></path><path d="M685.568 355.84m-120.832 0a120.832 120.832 0 1 0 241.664 0 120.832 120.832 0 1 0-241.664 0Z" fill="#D2EDFF" p-id="18847"></path><path d="M537.6 139.264m-93.696 0a93.696 93.696 0 1 0 187.392 0 93.696 93.696 0 1 0-187.392 0Z" fill="#D2EDFF" p-id="18848"></path><path d="M389.12 876.544c-28.16 0-51.2 23.04-51.2 51.2s23.04 51.2 51.2 51.2 51.2-23.04 51.2-51.2-23.04-51.2-51.2-51.2zM792.064 876.544c-28.16 0-51.2 23.04-51.2 51.2s22.528 51.2 51.2 51.2c28.16 0 51.2-22.528 51.2-51.2 0-28.16-23.04-51.2-51.2-51.2zM854.016 641.024c1.536-6.656 37.888-145.408 48.64-200.704 8.192-27.136 2.048-56.32-16.384-77.824-17.408-15.872-41.472-23.552-64.512-19.968H275.456c-6.144-9.216-13.824-17.92-22.016-25.088-14.848-11.776-33.792-17.408-52.736-15.872H143.872c-13.312 0-24.064 10.752-24.064 24.064s10.752 24.064 24.064 24.064h62.464c6.656 0 13.824 2.56 18.944 6.656 15.872 15.872 25.088 37.888 25.6 60.416 10.24 96.256 42.496 323.584 42.496 325.12 4.096 50.688 43.52 91.136 93.696 97.28h142.848c130.56 0 301.568-1.536 313.344-1.536 12.8 0 23.552-10.752 23.552-23.552v-1.024c-0.512-12.8-10.752-22.528-23.552-22.528-4.608 0-403.968 3.072-453.12 0-43.52-3.584-49.664-56.832-50.176-56.832 0 0-0.512-4.096-1.536-10.752 80.384-1.536 315.392-5.12 391.68-10.24 105.472-7.168 122.368-65.536 123.904-71.68z" fill="#95D3FF" p-id="18849"></path></svg>