<?xml version="1.0" standalone="no"?><!DOCTYPE svg PUBLIC "-//W3C//DTD SVG 1.1//EN" "http://www.w3.org/Graphics/SVG/1.1/DTD/svg11.dtd"><svg t="1627865094426" class="icon" viewBox="0 0 1024 1024" version="1.1" xmlns="http://www.w3.org/2000/svg" p-id="4861" xmlns:xlink="http://www.w3.org/1999/xlink" width="200" height="200"><defs><style type="text/css"></style></defs><path d="M842.3 191H181.7C116.8 191 64 242.9 64 306.6v409.8C64 780.1 116.8 832 181.7 832h660.5c64.9 0 117.7-51.9 117.7-115.6V306.6C960 242.9 907.2 191 842.3 191zM659 508l245.9-239.9c7.1 11.2 11.3 24.4 11.3 38.5v409.8c0 13-3.5 25.2-9.6 35.8L659 508z m183.3-274c10.2 0 20 2.1 28.8 5.8L512.4 591.1l-359-351.5c8.7-3.6 18.3-5.6 28.3-5.6h660.6zM117.7 752.6c-6.3-10.7-9.9-23-9.9-36.2V306.6c0-14.3 4.2-27.6 11.5-38.9L362 508 117.7 752.6z m64 36.4c-11.4 0-22.2-2.6-31.9-7.1L395 537l97.7 93.9 1.1 1.1 1.2 1.2c4.7 4.5 10.9 6.8 17.1 6.8 5.4 0 10.9-1.8 15.4-5.4L628 538l246.7 243.8c-9.8 4.7-20.7 7.3-32.3 7.3l-660.7-0.1z m0 0" p-id="4862"></path></svg>