<?xml version="1.0" standalone="no"?><!DOCTYPE svg PUBLIC "-//W3C//DTD SVG 1.1//EN" "http://www.w3.org/Graphics/SVG/1.1/DTD/svg11.dtd"><svg t="1627868000805" class="icon" viewBox="0 0 1024 1024" version="1.1" xmlns="http://www.w3.org/2000/svg" p-id="6399" xmlns:xlink="http://www.w3.org/1999/xlink" width="200" height="200"><defs><style type="text/css"></style></defs><path d="M835.072 413.696h125.2864a36.5056 36.5056 0 1 1 0 73.216h-86.784a378.4192 378.4192 0 0 0-38.5024-73.216z m62.976 175.0016h62.3104a36.5056 36.5056 0 1 1 0 73.1136H898.048a384.1536 384.1536 0 0 0-0.1024-73.1136z m-21.6064 168.448h83.9168a36.5056 36.5056 0 1 1 0 73.1648h-120.32c14.6432-22.8352 26.88-47.3088 36.4032-73.1648zM190.0032 413.7472c-15.36 22.7328-28.3136 47.2576-38.5024 73.1136H64.768a36.5056 36.5056 0 1 1 0-73.1648H189.952z m-62.9248 174.9504a384.1024 384.1024 0 0 0-0.1024 73.1136H64.768a36.5056 36.5056 0 1 1 0-73.1648h62.3104z m21.5552 168.448c9.5232 25.856 21.76 50.3296 36.4032 73.1648h-120.32a36.5056 36.5056 0 1 1 0-73.1648h83.968z m371.712 122.1632a253.44 253.44 0 1 0 0-506.9824 253.44 253.44 0 0 0 0 506.9824z m0 76.8a330.24 330.24 0 1 1 0-660.5824 330.24 330.24 0 0 1 0 660.5824z m218.3168-638.8224a380.2112 380.2112 0 0 0-133.6832-62.3616L744.96 12.8h172.1856l-178.4832 304.4864z m-438.9376 0.6144L115.968 11.7248h172.1856l144.896 243.5072a380.2624 380.2624 0 0 0-133.3248 62.6688z" fill="#1A8FE0" p-id="6400"></path><path d="M529.4592 724.5824L419.6864 782.336l20.992-122.2656-88.832-86.528 122.7264-17.92L529.408 444.416l54.8864 111.2576 122.7264 17.8176-88.7808 86.5792 20.992 122.2656z" fill="#1A8FE0" opacity=".46" p-id="6401"></path></svg>