<?xml version="1.0" standalone="no"?><!DOCTYPE svg PUBLIC "-//W3C//DTD SVG 1.1//EN" "http://www.w3.org/Graphics/SVG/1.1/DTD/svg11.dtd"><svg t="1627869336584" class="icon" viewBox="0 0 1024 1024" version="1.1" xmlns="http://www.w3.org/2000/svg" p-id="36864" xmlns:xlink="http://www.w3.org/1999/xlink" width="200" height="200"><defs><style type="text/css"></style></defs><path d="M89.088 199.68h414.72v577.536H89.088z" fill="#DC1E00" p-id="36865"></path><path d="M76.8 262.144h439.296V839.68H76.8zM89.088 199.68v52.224l23.552-20.48z" fill="#FF2800" p-id="36866"></path><path d="M76.8 262.144l35.84-30.72v30.72z" fill="#C80000" p-id="36867"></path><path d="M503.808 199.68v52.224l-23.552-20.48z" fill="#FF2800" p-id="36868"></path><path d="M516.096 262.144l-35.84-30.72v30.72zM219.136 306.176c0 6.144-5.12 10.24-10.24 10.24-6.144 0-10.24-5.12-10.24-10.24s5.12-10.24 10.24-10.24 10.24 5.12 10.24 10.24zM395.264 306.176c0 6.144-5.12 10.24-10.24 10.24-6.144 0-10.24-5.12-10.24-10.24s5.12-10.24 10.24-10.24 10.24 5.12 10.24 10.24z" fill="#C80000" p-id="36869"></path><path d="M295.936 430.08c-49.152 0-92.16-57.344-92.16-122.88 0-2.048 2.048-4.096 4.096-4.096s4.096 2.048 4.096 4.096c0 59.392 39.936 114.688 83.968 114.688S378.88 367.616 378.88 307.2c0-2.048 2.048-4.096 4.096-4.096s4.096 2.048 4.096 4.096c2.048 65.536-40.96 122.88-91.136 122.88z" fill="#FFFFFF" p-id="36870"></path><path d="M575.488 271.36h368.64v513.024h-368.64z" fill="#005000" p-id="36871"></path><path d="M564.224 326.656h390.144V839.68H564.224zM575.488 271.36V317.44l21.504-18.432z" fill="#006400" p-id="36872"></path><path d="M564.224 326.656l32.768-27.648v27.648z" fill="#003C00" p-id="36873"></path><path d="M944.128 271.36V317.44l-21.504-18.432z" fill="#006400" p-id="36874"></path><path d="M954.368 326.656l-31.744-27.648v27.648zM690.176 371.712c0 6.144-4.096 10.24-9.216 10.24s-9.216-5.12-9.216-10.24c0-6.144 4.096-10.24 9.216-10.24s9.216 4.096 9.216 10.24z" fill="#003C00" p-id="36875"></path><path d="M829.44 371.712a10.24 9.216 90 1 0 18.432 0 10.24 9.216 90 1 0-18.432 0Z" fill="#003C00" p-id="36876"></path><path d="M759.808 495.616c-44.032 0-82.944-57.344-82.944-122.88 0-2.048 2.048-4.096 4.096-4.096s4.096 2.048 4.096 4.096c0 59.392 34.816 114.688 73.728 114.688 38.912 0 73.728-54.272 73.728-114.688 0-2.048 2.048-4.096 4.096-4.096s4.096 2.048 4.096 4.096c2.048 64.512-36.864 122.88-80.896 122.88z" fill="#FFC800" p-id="36877"></path><path d="M348.16 507.904h414.72v50.176H348.16z" fill="#F5AA00" p-id="36878"></path><path d="M348.16 507.904v41.984l23.552-16.384z" fill="#FFC800" p-id="36879"></path><path d="M335.872 558.08l35.84-24.576v24.576z" fill="#E69600" p-id="36880"></path><path d="M762.88 507.904v41.984l-23.552-16.384z" fill="#FFC800" p-id="36881"></path><path d="M775.168 558.08l-35.84-24.576v24.576z" fill="#E69600" p-id="36882"></path><path d="M335.872 558.08h439.296V911.36H335.872z" fill="#FFC800" p-id="36883"></path><path d="M478.208 609.28c0 6.144-5.12 10.24-10.24 10.24s-10.24-5.12-10.24-10.24c0-6.144 5.12-10.24 10.24-10.24s10.24 4.096 10.24 10.24zM654.336 609.28c0 6.144-5.12 10.24-10.24 10.24s-10.24-5.12-10.24-10.24c0-6.144 5.12-10.24 10.24-10.24s10.24 4.096 10.24 10.24z" fill="#E69600" p-id="36884"></path><path d="M555.008 732.16c-49.152 0-92.16-57.344-92.16-122.88 0-2.048 2.048-4.096 4.096-4.096s4.096 2.048 4.096 4.096c0 59.392 39.936 114.688 82.944 114.688 44.032 0 82.944-54.272 82.944-114.688 0-2.048 2.048-4.096 4.096-4.096s4.096 2.048 4.096 4.096c3.072 65.536-39.936 122.88-90.112 122.88z" fill="#FF6400" p-id="36885"></path></svg>