<?xml version="1.0" standalone="no"?><!DOCTYPE svg PUBLIC "-//W3C//DTD SVG 1.1//EN" "http://www.w3.org/Graphics/SVG/1.1/DTD/svg11.dtd"><svg t="1625898481832" class="icon" viewBox="0 0 1024 1024" version="1.1" xmlns="http://www.w3.org/2000/svg" p-id="2399" xmlns:xlink="http://www.w3.org/1999/xlink" width="200" height="200"><defs><style type="text/css"></style></defs><path d="M236.127 501.04l-7.775-36.447h-0.796V460.8l-8.06-37.869c-22.47-102.969-35.878-153.486-40.05-169.851-5.67-20.48-15.132-27.838-21.92-27.838H57.627c-10.903 0-19.702-8.192-19.702-18.204 0-10.05 8.799-26.89 19.721-26.89h99.878c10.468 0 55.562 1.043 70.03 52.528 5.026 19.702 21.77 98.038 39.785 184.51h301.549v47.407H277.182c3.64 17.521 7.225 34.986 10.733 52.015l27.989 131.49A33.185 33.185 0 0 0 348.274 674h400.118c29.507 0 48.621-17.219 53.665-36.504-0.436 1.479 18.793-90.7 30.17-143.853l2.086-9.804c14.981-69.708 25.544-115.94 30.53-132.286 3.642-12.003 2.295-19.759-1.649-25.505-5.082-7.395-14.886-11.378-23.552-12.326H304.583v-47.407H840.8c9.121 0.701 17.465 2.39 26.358 5.84 14.033 5.443 26.245 14.185 35.12 27.042 11.927 17.427 15.834 39.993 7.945 66.142-4.437 14.507-14.98 60.72-29.544 128.475l-2.086 9.746c-10.107 47.218-30.91 146.812-30.91 146.774-9.936 38.02-46.61 71.073-99.309 71.073h-400.1c-3.906 0-7.755-0.265-11.529-0.815h-1.725c-47.882 0-59.81-24.16-62.692-38.59l-5.006-25.391a11607.893 11607.893 0 0 0-31.194-155.573zM375.77 905.481a58.16 58.16 0 0 0 58.254-57.988 58.16 58.16 0 0 0-58.254-57.989c-32.199 0-58.368 26.036-58.368 57.989 0 31.952 26.169 57.988 58.368 57.988z m0 47.408c-58.311 0-105.775-47.218-105.775-105.396 0-58.217 47.464-105.396 105.775-105.396 58.292 0 105.662 47.18 105.662 105.396s-47.37 105.396-105.662 105.396z m368.242-47.408c32.18 0 58.368-26.036 58.368-57.988 0-31.953-26.169-57.989-58.368-57.989s-58.368 26.036-58.368 57.989c0 31.952 26.169 57.988 58.368 57.988z m0 47.408c-58.311 0-105.776-47.218-105.776-105.396 0-58.217 47.465-105.396 105.776-105.396s105.775 47.198 105.775 105.396-47.464 105.396-105.775 105.396z" fill="#555555" p-id="2400"></path></svg>