<?xml version="1.0" standalone="no"?><!DOCTYPE svg PUBLIC "-//W3C//DTD SVG 1.1//EN" "http://www.w3.org/Graphics/SVG/1.1/DTD/svg11.dtd"><svg t="1625898675361" class="icon" viewBox="0 0 1024 1024" version="1.1" xmlns="http://www.w3.org/2000/svg" p-id="6027" xmlns:xlink="http://www.w3.org/1999/xlink" width="200" height="200"><defs><style type="text/css"></style></defs><path d="M796.768722 1023.991h-196.349808a39.320962 39.320962 0 0 1-36.505965-36.505964V690.067326H449.841061v297.41771a35.839965 35.839965 0 0 1-36.607965 36.505964h-196.299808c-59.339942 0-109.566893-50.226951-109.566893-114.123889V603.335411H89.140413c-45.669955 0-86.782915-40.95996-86.782915-86.731915a87.039915 87.039915 0 0 1 22.834977-59.339943L395.006114 51.19995c59.339942-64.204937 155.236848-68.760933 223.792782-9.420991l4.556995 4.607996a4.453996 4.453996 0 0 0 4.556996 4.556995l369.762639 406.319603c31.948969 36.504964 31.948969 91.287911 0 123.23688-18.277982 18.277982-36.504964 22.834978-59.339942 22.834978h-31.948969v306.5317c0 63.896938-50.226951 114.123889-109.566893 114.123889z m-159.793844-77.618924h159.793844c22.783978 0 36.504964-18.277982 36.504964-40.95996V566.830446c0-22.834978 13.669987-36.556964 36.504965-36.556964h68.505933a9.77999 9.77999 0 0 0 9.112991-9.112991 16.741984 16.741984 0 0 0-4.556996-13.669987L573.02694 105.725897c-31.948969-36.555964-81.91992-36.555964-118.679884-9.112991a4.453996 4.453996 0 0 0-4.557995 4.555995 4.453996 4.453996 0 0 0-4.555996 4.556996L75.418426 507.489504a13.874986 13.874986 0 0 0 0 18.226983c4.556996 4.556996 4.556996 4.556996 9.112991 4.556995h59.391942a35.839965 35.839965 0 0 1 36.504965 36.556964v343.036665c0 22.834978 18.278982 36.504964 36.505964 40.95996H372.170137v-260.759745c0-40.95996 31.947969-77.618924 73.061928-77.618924h114.122889c40.95996 0 73.010929 36.556964 73.010928 77.618924z m0 0" p-id="6028"></path></svg>